# xmcd CD database file
#
# Track frame offsets:
#	150
#	19493
#	36480
#	53636
#	72018
#	88283
#	98502
#	119670
#	146872
#	165224
#	181272
#	197256
#
# Disc length: 3030 seconds
#
# Revision: 0
# Processed by: cddbd v1.5.2PL0 Copyright (c) Steve Scherf et al.
# Submitted via: CDex 1.51
#
DISCID=a10bd40c
DTITLE=QuintoRigo - QuintoRigo
DYEAR=2006
DGENRE=Jazz
TTITLE0=Momento Morto
TTITLE1=Neon-Sun
TTITLE2=La nonna di Fredeck lo portava al mare
TTITLE3=The Robots
TTITLE4=Nero Vivo
TTITLE5=La danza delle sciabole
TTITLE6=Grigio
TTITLE7=Heroes
TTITLE8=Deux Heures De Soleil
TTITLE9=Kristo, Si!
TTITLE10=Rospo
TTITLE11=Highway Star
EXTD=YEAR: 2006
EXTT0=
EXTT1=
EXTT2=
EXTT3=
EXTT4=
EXTT5=
EXTT6=
EXTT7=
EXTT8=
EXTT9=
EXTT10=
EXTT11=
PLAYORDER=
